<svg xmlns="http://www.w3.org/2000/svg" viewBox="0 0 212.6 306.1"><path fill="#7D1A34" d="M73 96.9c-3.7 4.5-7.2 9.3-10.5 14.2-2.1 3.2-4.2 6.6-6.2 9.9-3.7 6.3-7.5 12.9-12.9 17.8-1 .9-2 1.8-2.5 3-.5 1.5-.2 3 .2 4.5.4 1.7.6 3.4 1.7 4.7 0-.9.6-6.1 2-8 .6-1.1 1.5-2.2 2.3-3.3 2.8-3.5 5.6-7.1 8.4-10.6 2.4-3 4.7-6 6.5-9.4 1.5-2.9 2.5-6 4.1-8.8.8-1.4 1.8-2.7 2.7-4l10.5-14.1c-1.1.8-2.6 1.2-3.7 1.9-1.2.5-1.9 1.4-2.6 2.2z"/><path fill="#400F20" d="M73.6 94L67 95.8c-1.8.5-3.7 1-5.6 1.1-1.5 3.8-2.4 7.9-2.4 11.9 0 1.8.2 3.9 1.6 5.1 2.1-6 7.1-10.5 11.2-15.5 1.2-1.2 2.3-2.8 1.8-4.4z"/><path fill="#4F0E28" d="M51.2 114c-.2 1.3-1.1 2.4-1.8 3.4-2.3 3.4-3.4 7.5-3.4 11.6 0 1.8.3 3.7 1.5 5.1 1-1.5 2-2.9 3.1-4.4.8-.6 1.4-1.5 1.9-2.2l2.7-3.9c1-1.5 2-2.9 2.3-4.6-2-.5-3.7-1.5-5.1-3-.1-.8-.6-1.6-1.2-2zM80.8 92.6c-3.8 3.5-7.2 7.5-10.2 11.8-2.4 3.5-4.5 7.2-6.6 10.9-1.2 2.2-2.5 4.4-3.8 6.6-3.3 5.5-7 10.9-11 15.9 1.8 1 4.1.8 5.9 0 1.8-.8 3.4-2.3 4.7-3.9 2.1-2.4 3.8-5.2 5.1-8.2.6-1.3 1.1-2.7 1.6-4.1 4.5-11.2 11.8-21.3 21.8-28.1 1.8-1.2 3.7-2.4 4.7-4.4-1.8-1.4-4.4-1.4-6.6-.5-2.2.9-4 2.4-5.6 4z"/><path fill="#D8D0C0" d="M32.3 111.8c.9 1.1 1.9 2.1 2.8 3.2 0-.9-.1-1.8-.1-2.8v-.5c0-.2-.1-.5-.1-.6-.7-4.1-.9-8.3-.7-12.5 0-.2 0-.4-.1-.5s-.2-.2-.3-.2l-3.6-.6c-.1 2.5-.1 5.1-.2 7.7.4 2.5 1.2 4.8 2.3 6.8z"/><path fill="#E8E2D1" d="M60.9 95.8c-3.3-.1-6.7-.8-9.7-1.9-.3 3.9-1.4 7.8-.8 11.6.3 2.4 1.2 4.6 2.1 6.8.6 1.6 1.3 3.3 2.4 4.7 1.1 1.4 2.8 2.4 4.6 2.2-.8-4.5-.7-9-.5-13.6 0-.8 0-1.5.2-2.3s.7-1.7 1-2.4c.4-1.7.7-3.4.7-5.1z"/><path fill="#E5D3AE" d="M173.2 132.9c6-9.8 12-19.7 16-30.4 4-10.8 6-22.6 3.7-33.8-2.4-11.2-9.5-21.8-20-26.5-7.3-3.3-16.1-3.5-23.6-.6-1.9.8-3.7 1.7-5.7 2.1-1.8.5-3.7.5-5.5.7-4.6.2-9.2.5-13.7.5-6.4.2-13.1.3-19 2.7-2.3.9-4.4 2.1-6.7 3.1-4.1 1.9-8.3 3.2-12.5 4.5-7.8 2.4-15.9 4.2-23.7 6.5.2 2 .3 4 .5 6 .1.6.2 1.3.5 1.8.7 1.1 2.2 1.1 3.5 1 12.3-.9 24.5-4.4 36.8-3.4.2 3.1-1.1 6.1-3.6 8-2.4 1.8-5.8 2.2-8.6 1.1-1.5-.6-2.8-1.6-4.1-2.4-7-4.1-15.8-2.8-23.9-1.4.9 4.6-2.4 9.2-6.5 11.3-4.1 2.1-9 2.4-13.6 2.5-.6 0-1.2 0-1.7-.3-.6-.5-.8-1.3-.9-2-.3-1.8-.6-3.7-.9-5.5-3.9 1.1-7.7 3.1-10 6.5s-2.7 8.2-.2 11.3c.8 1 2.1 1.9 3.4 1.7 1.2-.2 2.1-1.2 2.9-2 2.6-2.4 6.3-3.7 9.9-3.3 3.4.3 6.5 2 9.8 2.8 13.2 3.1 26.1-8.3 39.7-7.3-.9.8-1.9 1.4-2.9 2.1-15.2 9.6-26 26-28.8 43.8 6-9.1 14.7-16.4 24.7-20.7 7.8-3.3 16.3-4.7 24-8.2 2.5-1.1 5-2.4 7-4.3 4.2-3.8 6.1-9.5 8-14.8.2-.5-.4-1.5-.6-1 9.8 9.6 16.5 22.2 19.2 35.6 1.1 5.5 3.1 10.6 3.1 16.2-.1 3.7-.6 7.4-1.1 11.2-.2 1.3-.4 2.6-.6 4-1.3 7.2-3.9 14.2-7.6 20.5 3-.2 5.5-2.8 8.5-3 1-.1 2.1.1 3-.5.5-.3.8-.7 1.1-1.1 3-4.2 5.7-8.6 8.4-12.9 1.4-2.1 2.8-4.4 4.1-6.5 2.3-3.7 4.7-7.4 7-11.2.6-1.4 1.3-2.6 1.2-4.4z"/><path fill="#C4A574" d="M149.9 171.8c-12.2 17.3-27.4 32.2-43.6 45.8-6 5-12.1 9.8-17.1 15.8s-8.8 13.2-9.2 20.9c-.2 4.6.8 9.2 2.1 13.6.3 1.1.7 2.1 1.5 2.9.5.5 1.2.9 1.8 1.5 1.1 1.1 1.4 2.8 2 4.1.9 2.1 2.8 3.5 4.5 4.9 8.6 6.5 18.5 11.1 28.9 13.4-9.6 1.2-19.7 2.1-28.8-1.3-2.6-1-5.1-2.4-7.8-3.2-1.3-.4-2.6-.7-3.7-1.3-1.1-.6-2-1.5-2.9-2.4-6.2-6.3-10.8-14.4-12.3-23.1-.7-3.7-.8-7.5-.3-11.2 1.6-12.8 9.6-24 19.3-32.5 13.2-11.6 29.8-19.3 41.3-32.4 5-5.7 9.4-12.5 16.5-14.8 2.5-1 5.2-1.3 7.8-.7z"/><path fill="#A78B65" d="M51.2 72.4c.3.2.5.5.9.5.3.1.7 0 1-.2 2.2-.6 4.5-1.3 6.7-1.9 1.2-.3 2.5-.7 3.7-.2.2-2.7-.3-5.4-1.4-7.9-5.4 1.8-11.1 3.1-16.8 3.9.8.1 1.4.8 1.8 1.5 1.2 1.7 2.6 3.1 4.1 4.3zM121.2 116.6c-1.8-3.2-4.1-6.3-7.6-7.8-3-1.2-6.3-1.1-9.5-.6s-6.3 1.4-9.5 2.3c-8 2.3-17 5.2-21 12.5 10.6 1.1 21.1 4.5 30.4 9.9 2.4 1.4 4.6 2.8 6.7 4.6 6 5 10.2 11.9 11.9 19.5 3.7-13.2 5.1-28.2-1.4-40.4z"/><path fill="#78693F" d="M14.1 62.2c-1.5 1.9-2.1 4.4-2.2 6.9-.2 6 1.8 11.9 5 16.9 3.1 5 7.3 9.4 11.6 13.6-.8-1 .6-2.3 1-3.5s-.5-2.5-.9-3.7c-1.1-3.1.1-6.7 2.3-9.3 2.2-2.4 5.3-4.1 8.3-5.4 4-1.8 8.1-3.1 12.3-4.3-1.9-2.2-3.8-4.4-5.7-6.7-.5-.5-.9-1.1-1.5-1.4-.8-.4-1.7-.3-2.6-.2-5.1.2-10.4-1.6-14.3-5-1.2-1-2.4-2.2-3.9-2.4-1.1-.2-2.4.2-3.4.6-2.3 1-4.5 2.1-6 3.9zM35.9 98.9c0 3.2 0 6.4-.1 9.6 2.7-.7 5.3 1 7.6 2.6 2.4 1.7 5.2 3.4 8.1 2.7-.2-6.2-.8-12.4-1.6-18.5 0-.1 0-.2-.1-.3-.1-.2-.3-.2-.5-.2-2.1-.3-4.3-.6-6.4-.5-2.1.2-4.3.7-6 2.1-.3.2-.5.5-.8.8-.2.5-.2 1.1-.2 1.7z"/><path fill="#CCBA9B" d="M108.2 104.7c-.6 1.6-2.1 2.8-3.7 3.4s-3.4.8-5 1.1c-3.7.7-7.2 2-10.7 3.4-3 1.1-6 2.3-8.6 4.1-6.7 4.5-10.6 12.7-17.9 15.8-.2-1.1.3-2.2.8-3.3 3.4-7.6 6.9-15.2 11.6-22 4.7-6.9 10.8-12.9 18.4-16.4 1.7-.8 3.5-1.5 5.4-1.5 2.9 0 5.7 1.7 7.5 4.1s2.6 5.3 2.8 8.3c-.2.9-.2 2-.6 3z"/><path fill="#43481A" d="M81.1 69.6c-.2.3-.5.7-.5 1.1.1.6.6 1 1.1 1.3 4.2 2.7 9.1 4.4 14.1 4.8 1.1.1 2.1.2 3.1-.2 1.7-.5 3-1.9 3.7-3.5.8-1.6 1.1-3.4 1.3-5-5.7-.1-11.5-.2-17.3-.2-1.9 0-4.2.1-5.5 1.7z"/><path fill="#8C734D" d="M63 72.4c-.1-.3-.2-.6-.5-.8-.2-.2-.6-.2-.8-.2-4.7.1-9.2 1.7-13.5 3.4-2 .8-4 1.6-5.6 2.9s-2.8 3.4-2.6 5.5c.1.8.5 1.8 1.2 2.1.3.2.7.2 1.1.3 4.1.5 8.3.4 12-1.1 3.8-1.5 7.2-4.4 8.5-8.2.4-1.1.7-2.6.2-3.9z"/><path fill="#49401B" d="M139.5 105.4c0 .5-.2.9-.4 1.3-3.3 6.6-10.4 11-17.7 11.1-3.7-4.1-8-7.8-12.5-11 4.9-.6 9.5-3.4 12.3-7.3 1.5-2 2.4-4.3 3.4-6.5.9-2.1 1.8-4.2 2.8-6.3 5 5 9 10.9 11.7 17.4.3.3.4.9.4 1.3z"/><path fill="#5A4F22" d="M134.8 111.2c-3.2 2.4-6.6 5-10.6 5.8-.8.2-1.7.4-1.9 1.1-.2.5.1 1 .3 1.5 2.8 6 3.9 12.6 3.2 19.2 4-.2 8 .4 12 .2s8.2-1.2 11.1-4c-.2-10.5-3.4-20.8-9.2-29.5-.6 2.5-2.9 4.2-4.9 5.7z"/><path fill="#685D28" d="M122.8 155.8c1.3-.5 2.6.6 3.7 1.5 2.9 2.1 6.7 2.7 10.3 3.1 2.4.3 5.3.6 7.3-.9 2.1-1.5 2.7-4.4 3.1-7 .8-5.6 1.3-11.2 1.5-16.8-1.5.6-3.1 1.1-4.7 1.5-3.1.9-6.4 1.5-9.7 1.8-2.1.2-4.2.3-6.3.3-.3 0-.7 0-.9.2-.6.4-.6 1.2-.6 1.9-.1 5-3.5 9.4-3.7 14.4z"/><path fill="#5A4F22" d="M114.6 178.6c3.7.2 7.5.2 11.2-.6 1.8-.5 3.5-1.1 5.3-1.8 1.4-.5 2.8-1.1 4.1-1.5.6-.2 1.1-.5 1.7-.8.5-.4 1-.9 1.5-1.5 2.7-3.4 4.4-7.5 5.1-11.8-7 .5-14.3-.5-20.8-3.3-4 6.5-8.9 12.5-14.4 17.8 1.3.2 1.9 1.8 3 2.6.8.7 2 .8 3.3.9z"/><path fill="#685D28" d="M89.2 188.8c-.3.5-.3 1.2-.2 1.9.8 5.1 5.4 9 10.1 11.2 1.8.8 3.7 1.5 5.8 1.4 4.3-.4 7.1-4.4 10.6-6.9 1.1-.8 2.1-1.4 3.2-2.1 7.1-4.4 13-10.9 16.6-18.5-2.8.6-5.7 1.2-8.4 1.8-5.5 1.1-11.2 2.4-16.6.7-1.5-.5-3.1-1.2-4.7-.8-.7.2-1.3.6-1.8 1l-13.5 9.3c-.4.3-.9.6-1.1 1z"/><path fill="#7B6D33" d="M89.3 192.2c-.3-.5-.5-.9-.9-1.2-.5-.5-1.2-.5-1.9-.6-2.5-.1-5 1.1-7.2 2.1-6.3 3.1-12.5 6-18.8 9.1-2.3 1.1-4.6 2.2-6.3 4.1 3 4.4 7.6 7.9 12.7 9.4 1.5.5 2.9.7 4.3 1.1 4.2 1.3 8.3 4.1 12.7 3.3 2.4-.5 4.5-2.1 6.5-3.6 4.4-3.4 9-7 13.4-10.4.5-.5 1.2-1.2.8-1.8-6.5-1.6-12.1-5.9-15.3-11.5z"/><path fill="#8C7D3F" d="M83.5 219.7c-2.8-.6-5.5-1.1-8.3-1.8-2.8-.6-5.7-1.2-8.3-2.3-3.7-1.5-7-3.9-10.1-6.6-1.1-.9-2.2-1.9-3.6-2.1-2-.2-3.7 1.4-5 2.8-7.1 8-13.5 17.4-13.8 28.1 7.4 3.7 15.8 5.6 24.1 5.3 2.2-.1 4.5-.3 6.5-1.3 5.3-2.6 7-9.3 11.2-13.5 2.6-2.8 6.6-4.8 7.3-8.6z"/><path fill="#7B6D33" d="M61.9 273.4c1.1-.7 2.2-1.5 2.9-2.6.8-1.4.9-3 1-4.6.2-4.5.5-9 0-13.5-.2-1.5-.4-2.9-.2-4.3.5-2.1 2.1-4 2.1-6.1-8.9 2-18.3 1.3-26.8-1.9-2.1-.8-4.1-1.8-6.3-1.8-1.8 5.1-1.8 10.7-.8 16 1 5.3 3.1 10.4 5.4 15.2.8 1.6 1.7 3.3 3.1 4.4 1.7 1.4 4 1.8 6.2 2 4.8.4 9.5-.5 13.4-2.8z"/><path fill="#685D28" d="M66.5 294.2c-2.6-1.9-5.8-2.8-8.5-4.4-1.4-.8-2.5-1.9-3.7-3-2-1.8-4.1-3.6-6-5.4-1.5-1.3-3.1-2.9-3.1-4.9 7.4.5 15.1-2 20.7-6.9 2.1 8.3 7.3 15.7 14.5 20.3-1.3 1.1-2.6 2.3-3.9 3.5-1.9 1.8-4.4 3.6-6.8 2.8-1.3-.3-2.2-1.2-3.2-2z"/><path fill="#49401B" d="M73 295.7c1 1 2 2.1 3.2 2.7 1 .5 2.1.8 3.2 1.1 11.6 2.7 23.9 3.8 35.5.8.9-.2 1.8-.5 2.5-1.1s1.1-1.7.8-2.5c-12.5-.7-25-2.5-37.3-5.4-.5-.1-1-.3-1.1-.8-2.3 1.7-4.5 3.4-6.8 5.2z"/><path fill="#A78B65" d="M16.3 237.3c5.1-1.5 10.6-.5 15.9.2.4.1.8.1 1.1-.2.2-.2.2-.4.3-.6 1.5-4.4 2.8-8.6 4.3-13-1.8 0-3.2-1.8-5-2.2-1.8-.5-3.6.4-5.2 1.2-3.1 1.5-6.2 3.1-9 5.1l-1.5 1.2c-1.8 2.3-1.4 5.5-.9 8.3z"/><path fill="#A78B65" d="M5.9 261.6c.8 4.8 2.5 9.5 4.1 14.1.5 1.5 1.1 3 2 4.4 1.1 1.7 2.7 3.1 4.4 4.2 6.2 4.4 13.6 6.6 21.1 7.6s15.1.8 22.6.7c-.9-1.1-2.1-2-3.4-2.8-15.7-11.9-25-32.1-23.4-51.8-4.5-1.1-9.2-1.8-13.8-1s-9 3.1-11.6 7c-2.1 3.3-2.7 7.4-2.6 11.3.1 2.1.3 4.2.6 6.3zM107.8 290c3.7 1.5 7.6 3.1 11.6 3.6 2.4.3 4.9.2 7.4.4 8.7.5 17.2 3.1 25.9 4.7 3.9.7 7.9 1.2 11.8 1.7 7 .8 14 1.4 20.8.1 6.9-1.3 13.5-4.7 17.6-10.3 4.3-6 5-13.9 4.9-21.3 0-2.1-.1-4.3-.6-6.4-1.6-6.1-7.1-10.6-13.1-12.8-5.8-2.1-12.1-2.4-18.2-2.8-14.6-.7-29.4-1.4-43.8 1.3-4.9.9-9.7 2.2-14.6 3-12.2 1.8-24.9.1-36.2-5 .4 6.3-2.2 12.9-.5 19 .9 3.1 2.8 5.7 4.7 8.3 2.1 2.9 4.3 5.8 7 8.3 4.2 3.6 9.8 6 15.3 8.2z"/><path fill="#E5D3AE" d="M86.9 235.5c-2 3.4-3.4 7-4.3 10.8 7.3.8 14.3 3.7 21.6 4.8 6.7 1.1 13.5.6 20.1-.6 5.7-1.1 11.4-2.7 17.2-3.4 3.7-.5 7.5-.5 11.2-.5 3.7-.1 7.4-.1 11.1-.2 7.8-.1 15.7-.2 23.3 1.5 1.2-5-2.7-10.3-7.4-12.3-4.8-2.1-10.3-1.8-15.5-1.6-2.4.2-4.8.2-7 1-1.8.5-3.3 1.5-5 2.1-5.3 2.1-11.1 1.8-16.7 2.4-5.2.5-10.3 1.9-15.5 2.5-11.4 1.4-23.2-.9-33.1-6.5z"/><path fill="#CCBA9B" d="M72 93.4c1.8-1.3 3.7-2.7 5.9-3.5 1.5-.5 3-.8 4.6-1.1 5-.8 10.3-1.2 15.4-1.2-9.1-2.1-17.1-8.5-21-16.9-4.9.2-9.7.8-14.5 1.8 6.3 2.4 11.1 8.6 11.9 15.3 0 2.1-.4 4.7-2.3 5.6zM113.6 63.1c-1.3-1.9-2.8-3.6-5.6-4.7-6.5-2.4-13.7-3.1-20.5-2.1 3.9-.6 8-2.1 12-2.8 4.4-.8 8 .7 12.4 1.2 5.3.5 10.3-2.1 14.9-4.8 2.5-1.5 5.4-3.7 8.2-4.7 2.2-.7 4.4-.4 6.7-.7 5.7-.6 11.2-3.2 16.6-5 2.1-.7 4.2-1.3 6.3-.9 4.4.8 7.3 5.3 11.6 6.3-7.2-2.2-15.1-2.3-22.3.4-7 2.7-13.1 8.3-15.5 15.5-2.9 8.3-.8 17.5 1.3 26.2l7.8 31.5c-5.5-13.8-14.9-24.9-20.5-38.7-1.1-2.6-2.1-5.3-4.1-7.2-1.5-1.5-3.6-2.4-5.2-3.8-1.8-1.8-2.8-3.8-4.1-5.7z"/><path fill="#A5895B" d="M119.3 45.9c-2.5.2-5 .3-7.5 1-1.6.5-3.1 1.1-4.6 1.7-7.3 3-14.5 6-21.7 9 9-1.9 18.3-2.7 27.5-2.2 3.6.2 7.3.5 10.6-.6 1.8-.6 3.4-1.5 5-2.4 4.4-2.6 9-5.2 13.4-7.8-7.5.3-15 .9-22.7 1.3z"/><path fill="#C4B191" d="M29.2 86.2c2.9-3.7 7-6.7 11.5-8.3.1 1.6-.5 3.2-.5 4.8 0 1.6.7 3.4 2.3 3.8 1.2.3 3.1-.2 3.4 1.1.1.4 0 .8.2 1.2s.5.7.8.9c1.4 1.1 2.8 2.1 4.2 3.2-1.7 1-3.8.2-5.7.1-3.5-.1-6.4 2.5-9.5 4.2-1.8 1-4.3 1.5-5.4-.2-.5-.8-.5-2-.6-3-.4-2.1-2.1-4.1-1.5-6.2 0-.6.4-1.1.8-1.6z"/><path fill="#F2EBD8" d="M54.6 43.7c-.5-.4-.7-1-.9-1.5-2.2-7.3-1.1-15.3.2-22.9.5-3.1 1.1-6.4 3.4-8.6 2.1-1.8 5-2.3 7.4-3.5 1.5-.8 2.8-1.8 4.3-2.3 1.4-.5 2.8-.7 4.3-.8 6.3-.5 12.7 0 19 .5 1.5.2 3.1.2 4.7.4 5 .4 10.1.8 15.1 1.9 1.1.2 2.4.6 3.3 1.5.8.8 1.2 1.8 1.6 2.8 1.9 5.3 2.8 10.9 2.6 16.5C106.2 30.8 93 35.2 81.8 43c-.8.5-1.5 1.1-2.4 1.5-2.3.8-4.8 0-7.3-.4-5.3-.8-10.8.7-16.1.2-.5-.2-1-.3-1.4-.6z"/><path fill="#F2EBD8" d="M66.1 62.1c3.7-1 7.4-2.3 11.1-3.5 6.4-2.2 25.6-10.5 28-11 4.1-.8 8.1-1.6 12.2-2 7.3-.6 14.6.2 21.9-.8 3.8-.5 7.6-1.6 11.1-3.1.6-.2 1.1-.5 1.6-.9 1.9-1.8 1-5.1-1.1-6.7-2.1-1.6-4.7-1.9-7.3-2.5-4.4-1-8.5-3-12.5-4.9-3.7-1.8-7.3-3.5-11.1-5.3-.1 2.2-.2 4.5-.3 6.7C109.1 29.5 99 33.2 90 38.7c-1.9 1.1-3.7 2.4-5.8 3.4-8.5 4.1-18.5 2.7-27.8 1.1-.9-.2-2-.4-2.6-1.1-.7-.9-.8-2.1-.8-3.1-.2-6.3-.2-12.7-.4-19-6-1.1-12.1 1.4-17.7 3.9-3.3 1.5-6.6 3-9.2 5.4-6.7 6.3-6.9 17.1-3.5 25.6.9 2.3 2.1 4.6 3.9 6.3 2.8 2.5 6.8 3.2 10.6 3.6 9.9.6 19.9-.2 29.4-2.7z"/><path fill="#F9F6EF" d="M84.3 17.3c-.1 1.3-.2 2.6-.2 3.9 0 .5-.1 1.1.2 1.5.2.4.6.6 1 .9 8 5.1 18.1 5.3 27.5 5.3 1.7 0 3.4 0 5-.2.5-.1.9-.2 1.2-.5.2-.3.3-.6.4-1 1-5.6-.1-11.6-2.9-16.5-.2-.4-.5-.8-.9-1.1-.3-.2-.7-.2-1.1-.3-10.6-.9-21.6 1.9-30.2 8z"/><path fill="#89857A" d="M59 16.4c-1.1-1-.6-2.8.2-4.1 2.4-3.7 6.4-6 10.6-7.1C74 4 78.5 4 82.7 4.1c7.2.3 14.3 1.2 21.4 2.1 3.2.4 6.5.8 9.2 2.7-14.2 1.3-28.5 2.6-42.2 6.4-3.4.9-6.8 2-10.3 1.7-.7-.1-1.4-.2-1.8-.6z"/><path fill="#F9F6EF" d="M120.5 22.2c1.4 0 2.7.6 4 1.2 2.3 1.1 4.7 2.2 7 3.4-3.7-.2-7.5 0-11.2.4.3-1.7.5-3.4.2-5z"/><path fill="#89857A" d="M151.5 33.9c-5.7-2.4-11.5-5-17.6-5.7-4.4-.5-8.7-.2-13.1.2-2.1.2-4.1.4-6.1.8-3.2.6-6.3 1.8-9.3 3.1-3 1.1-6 2.4-9 3.5-1.8.7-3.5 1.4-5.2 2.3-1.8 1-3.4 2.1-5 3.4-8.3 6.3-16.2 13.4-23.4 21 2.9-.4 5.7-1 8.5-1.8 3.1-.9 6-2.1 9-3.1 5.4-2.1 10.8-4.1 16.1-6.3 5.8-2.2 11.7-4.5 17.9-5.4 8.1-1.1 16.4.4 24.5-.8 2.5-.4 5-1 7.5-1.6 2.2-.5 4.7-1.3 5.7-3.3.7-1.3.7-2.8.7-4.3 0-.6-.1-1.2-.5-1.7-.1-.1-.4-.2-.7-.3z"/><path fill="#9C978D" d="M137.8 29.8c-1.8-.2-3.6-.3-5.4-.3-12.2.1-23.4 8.2-29.8 18.6 12.9-4.8 27.2-1.8 40.8-3.6 1.8-.2 3.7-.6 5.4-1.5 1.6-.9 3-2.5 3.1-4.4.1-1.3-.4-2.7-1.1-3.7-2.9-3.8-8.3-4.6-13-5.1z"/><path fill="#F9F6EF" d="M77.5 50.7c2.4-.2 4.5-1.7 6.5-3.1 5-3.7 10.2-7.3 16-9.5 2.4-.8 4.7-1.5 7.2-2.1 9.5-2.4 19.2-4.4 28.9-3.4 5.4.5 10.6 2.1 15.8 3.6 0-1.9-2.2-3.1-4.1-3.5-1.9-.5-4.1-1.1-4.7-2.9-8.7-2.8-18.2-1.9-27.2-.5-4 .6-7.9 1.3-11.7 2.6-4.1 1.4-7.9 3.4-11.7 5.5-4.7 2.7-9.6 5.5-13.2 9.6-1 1.1-1.8 2.4-1.8 3.7z"/><path fill="#F2EBD8" d="M79.8 46.6c-1.1 1.1-2.1 2.4-2.1 4 2.1.5 4-1.4 5.6-2.9 3.6-3.4 8.2-5.5 12.6-7.5 5-2.3 10.3-4.5 15.8-5.3 1.3-.2 2.6-.2 3.8-.7 3.1-1.1 4.9-4.2 7.7-5.8-5 .8-10.1 1.8-15.1 3.2-1.4.4-2.8.8-4.2 1.3-4.7 1.7-9.2 4.1-13.5 6.5-3.8 2-7.7 4.1-10.6 7.2z"/><path fill="#57571D" d="M103.9 68.5c.1.4-.2.8-.5 1.1-.9 1.1-1.8 2.2-2.8 3.3-.9 1.1-1.8 2.2-3.1 3-2.1 1.4-4.9 1.8-7.3 1.1-.2-.1-.5-.2-.8-.3-.6-.5-.8-1.3-.3-1.8 1.3-.1 2.5-.5 3.4-1.4s1.1-2.2.5-3.3c-.8-1.5-3-1.8-4.7-2.1 5.3-.6 10.5-.5 15.6.4z"/><path fill="#A5A197" d="M110.9 45.2c10.1-1.5 20.3-3.1 29.4-7.9 2.1-1.1 4.4-2.5 6.9-2.1 1.2.2 2.4.8 3.3 1.8.4.4.8.8.8 1.3.2.7-.2 1.3-.6 1.8-1.7 2.2-4.3 3.5-7 4.1-2.8.6-5.5.6-8.3.6-6.3-.1-12.6-.1-18.9-.2"/><path fill="#FFF" d="M151.3 35.8c0 .2-.1.3-.2.4-.2.3-.7.2-1.1.2-1.8-.3-3.5-.9-5-1.8.2-1 .9-1.9 1.9-2.3.3-.2.5-.2.8-.2 2.1-.3 4 1.8 3.6 3.7z"/><path fill="#CEC6B3" d="M32.5 64.1c-2.1-.6-4.2-1.5-6-3-4.7-3.7-6.4-10.1-6.8-16.1-.2-3.4-.1-6.8 1.4-9.9 1.3-2.8 3.4-5 5.9-6.9 7.3-5.8 17-8.7 26.3-8-1.6 7.6 1.9 15.6-.4 23-2.8-1.3-6.3-.5-8.6 1.6-2.3 2-3.3 5.2-3.6 8.2-.2 1.5 0 3 .7 4.4 1 1.9 3.2 3 5.4 3.4s4.4.2 6.6.5c-6.2 3.7-14 4.8-20.9 2.8z"/><path fill="#89857A" d="M49.9 42.1c-5.4 1.5-11 2.1-16.1 4.4-5 2.4-9.6 7.2-9.2 12.7-2.1-1.9-3.3-4.6-3.5-7.3-.3-3.4 1-6.8 2.7-9.9 5.7-10.5 16.4-18.6 28.3-18.9.5 4.5.9 9 1.3 13.5.2 1.3.2 2.8-.5 3.8-.6.9-1.8 1.4-3 1.7z"/><path fill="none" d="M93.9 68.9c.2.1.3.2.5.2"/><path fill="#7C7732" d="M100.2 72.5c-.7-2.1-2.5-3.7-4.7-4.1.8 2.4.5 5.1-.6 7.3.7.3 1.4.5 2.1.6 1.1.1 2.5-.2 3.1-1.3.5-.7.3-1.7.1-2.5z"/><path fill="#B7AE98" d="M112.7 139.2c-1.5-1.7-3.3-3.4-5.4-3.7-1.3-.2-2.7.1-4 .4-5.7 1.2-11.3 2.5-16.7 4.7s-10.5 5.4-14.1 10c2.7.4 5.4.8 8.2 1.3 3 .3 6 .9 8.7 1.9 3.9 1.1 7.6 2.5 11.2 4.5-6 3.7-12.3 6.9-18.9 9.3 1.2.3 2.5.6 3.7.9 2 0 3.9.2 5.9.9.8.1 1.8.1 2.6 0-2.1 5.7-7.6 9.3-12.9 12.2-13.5 7.2-28.3 11.2-42.8 15.9-3.2 1-6.4 2.1-9.3 3.9-1.1.8-2.1 1.6-3.1 2.5-1.6 1.7-2.8 3.7-3.3 5.9 3.1-1.1 6.7-.4 9.8.9 3.1 1.3 5.6 3.4 9 4.6.6.3 1.2.5 1.8.5 1.2 0 2.2-1 3.1-1.9 11.7-12.1 28.2-17.7 43-25.6 3.1-1.6 6.1-3.4 9-5.4 2.8-2 5.5-4.3 8.1-6.6 3.3-2.8 6.6-5.7 9.3-9.3 2.7-3.5 4.5-7.7 4.5-12.2-.2-5.8-3.5-11.2-7.4-15.6z"/><path fill="#F2EBD8" d="M203.3 166.9c1.5.5 2.8.9 4.2 1.5-4.1-10.4-10-20.5-19.1-26.9-2.1-1.5-4.4-2.8-6.7-4.1-2.8-1.6-5.7-3.2-8.6-4.8-11.8 19.6-23.7 39.2-38.9 56.3-12.2 13.6-26.3 25.4-40.3 37.1 6.5 3.1 14.2 2.1 21.3 1 8.5-1.3 17-2.6 25.5-4.2 3.6-.9 7.2-1.8 10.8-2.8 2.2-.5 4.4-1.1 6.5-1.7 1.2-.6 2.3-1.5 3.1-2.4-4-1.4-8-3.9-8.5-7.7-.8-1.1-1.4-2.3-1.8-3.5-.9-2.3-1.4-4.7-1.6-7.2-.5-2.9-.4-5.8.1-8.7.3-3.4 1-7.1 3.6-9.3 3-2.4 7.3-2.1 11.1-1.7 1.9.2 3.9.5 5.8.8 2.6.2 5.2.5 7.6.8 4.2.5 8.1 1.8 12.2 2.9.8.2 1.7.3 2.5.5.2-7.1-2.9-14.3-8.2-19.1 2.6.1 5.2.3 7.8.7 3.9.4 7.9 1.3 11.6 2.5z"/><path fill="#F9F6EF" d="M201.8 166.2c1.8.2 3.6.6 5.4 1.2-4.4-13.2-14.5-24.6-27.3-30.2-1.9-.8-4.1-1.6-6.2-1 5.6 3.4 9.3 9.6 9.9 16.2.2 1.8.1 3.7-.7 5.4-1.5 3.3-5 4.9-8.5 6 1.6-.1 3.3.9 4.1 2.4 1.1 2 .6 4.6-.8 6.5-1.3 1.8-3.4 3.1-5.4 4.1-2.8 1.2-5.8 2.1-8.9 2.3 9.9-.8 20 .6 29.5 4.1-1.3-7.3-4.7-14.2-9.8-19.7 6.2-.8 12.7.2 18.7 2.7zM131.5 224.9c-.9.3-1.8.6-2.7 1 .9-.1 1.8-.5 2.7-1zM161.8 216.6c-.5-.2-.9-.5-1.4-.8-4-1.2-7.3-4.6-9.2-8.4-2.2-4.4-2.8-9.6-3.4-14.5-.2-1.3-.3-2.5-.5-3.8-1.8 5.9-3.5 11.8-5.3 17.7-1.2 4-2.4 8-4.6 11.6-1.7 2.8-4 5.1-6.8 6.6 8.5-2.9 17.7-3.8 26.2-6.6 1.8-.5 3.4-1.1 5-1.8z"/><path fill="#89857A" d="M92.7 142.8c-1.7.8-3.4 1.6-4.1 3.4-.9 2.6 1.5 5 3.7 6.7 1.1.8 2.2 1.8 3.4 2.6-5-1.8-10.5-2.7-15.8-3.4-2.6-.4-5.2-.8-7.8-1.1 1.3-.2 2.2-1.3 3.1-2.3 1.5-1.6 3.3-3.1 5.1-4.4 8.1-5.5 18.2-7 28-7 .6 0 1.3.1 1.6.5-6 0-11.7 2.5-17.2 5zM101.6 159.7c-4.2.9-6.4 5.9-5.7 10.1-4.1-1.5-8.7-1.3-13.1-1.1 4.8-2.8 13.5-7.7 18.8-9zM79 182.3c-8.6 3.4-17.1 7.2-25.6 11.3-4.2 2.1-8.5 4.3-11.9 7.6s-5.9 7.8-5.6 12.5c-5.1-2-10.6-3.8-16-3.1 2.7-6.3 9.1-10.3 15.6-12.5 6.5-2.1 13.4-2.9 20-5"/><path fill="#5A4F22" d="M119.1 103.8c1.2-1 2.9-1.2 4.4-1.4 2.1-.2 4.3-.1 6 1 1.8 1.1 2.8 3.1 2.8 5.1.1 2.1-.8 4.1-2.2 5.5 2.1-.9 4.3-1.9 6-3.4 1.8-1.5 3.1-3.7 3.1-6s-1.3-4.4-2.5-6.3c-1.8-2.9-3.7-5.8-5.6-8.7-1.1-1.8-2.4-3.6-4.3-4.4-1 6.7-3.7 13.1-7.7 18.6z"/><path fill="#685D28" d="M147.1 123.4c-1.2-4.7-2.5-9.5-4.7-13.8-.5-.9-1.1-1.9-2.1-1.8-.5.1-.8.4-1.1.7-3 2.8-5.8 5.7-8.4 8.7 1.5-.8 3.4-.6 5 .2s2.8 2.1 3.7 3.5c.9 1.5 1.5 3.2 1.8 5 .6 5.1-2.8 10.5-7.7 12.1 2.9.4 6 .8 8.9 0s5.6-2.8 6.2-5.7c.4-1.8-.1-3.7-.6-5.4-.4-1.2-.7-2.3-1-3.5z"/><path fill="#7B6D33" d="M144.7 158.7c.7-.8 1-2 1.2-3.1 1.5-6.6 2.4-13.3 2.6-20-4.4 1.5-9 3.1-13.4 4.7 2.2.6 4.7 1.5 5.5 3.7.3.8.3 1.5.2 2.4-.2 3.1-1.7 6.2-4.1 8.3-2.4 2.1-5.6 3.1-8.7 2.8 3.4 1.9 7.1 3 11 3.1 2 0 4.4-.3 5.7-1.9z"/><path fill="#685D28" d="M130.1 171.5c-3.9 3.4-9.2 4.8-14.2 6.2 4.7.6 9.3-.7 13.8-2 2.1-.6 4.4-1.2 6.2-2.4 4.1-2.7 6-7.6 7.3-12.2-5.3.2-10.6-.4-15.7-1.8 2.1.7 4.1 2.4 5 4.4.3.7.5 1.4.5 2.1.3 2.1-1.1 4.2-2.9 5.7z"/><path fill="#7B6D33" d="M114.7 179.3c1.9.4 3 2.6 2.8 4.5s-1.5 3.6-2.7 5c-1.8 2.1-3.7 4.1-5.8 5.9-3.3 2.8-7.4 5.4-11.7 4.6 1.8.2 2.7 2.1 4.1 3.2 1.6 1.1 3.7 1.1 5.6.5 1.8-.7 3.4-1.9 4.9-3.1 8.8-7 17.9-14.3 23.1-24.3-6.9.7-13.7 1.9-20.3 3.7z"/><path fill="#8C7D3F" d="M103.2 204.5c-3.4-1.6-6.7-3.3-10-5.1.9 1.5.8 3.5.2 5.2-.7 1.7-2 3-3.4 4.1-6.3 5.4-15.4 7.3-23.4 5.1 5 3.1 11.2 3.4 17 3.5.8 0 1.5 0 2.2-.2.8-.2 1.4-.6 2.1-1 5.3-3.3 10.9-6.8 15.3-11.6z"/><path fill="#9A8959" d="M67.3 216.3c1.8 2.2 2.2 5.2 1.9 8-.3 2.8-1.4 5.4-2.7 8-.8 1.7-1.8 3.3-3 4.7-4 4.1-10.3 4.5-16.1 4.6 6.5 3.6 15.3 2.6 20.8-2.5 1.5-1.3 2.6-2.8 3.8-4.4 4-5 7.9-10.1 11.9-15.2-5.5-1.2-11.1-2.2-16.6-3.2z"/><path fill="#8C7D3F" d="M65.9 268.6c.2-.5.2-1.1.2-1.8-.2-2.6-1.1-5.1-1.4-7.7-.8-6.1 1.1-12.2 3.1-18.1-4.8 2.7-10.3 5.5-15.7 4.1 3.6 3.6 7 7.7 9 12.4s2.6 10.2.8 15c.7-1.8 3.3-2.1 4-3.9z"/><path fill="#5A4F22" d="M71.4 295c-4.2.2-8.3-1.7-11.8-3.9-5.7-3.7-10.8-8.4-14.7-14.1 3.4.2 6.8.5 9.9-.7 2.5-.9 4.8-2.8 7.5-3-2.6 3.6-2.4 8.6-.3 12.5s5.8 6.7 9.8 8.6c.3.3-.1.5-.4.6z"/><path fill="#685D28" d="M81.1 290.1c0 .2.1.3.1.5 2.4 2.1 5.5 3.4 8.6 3.4.2.2-.2.5-.4.5-3.7 1.3-7.6 2-11.5 2.1-1.3 0-2.8-.1-3.4-1.1 2.2-1.8 4.3-3.6 6.6-5.4z"/><path fill="#383219" d="M110.8 106.9c1.5-.2 3-.5 4.4-1-.4 1.3-.8 2.8-.3 4.1.3.9 1 1.6 1.8 2.2 1.3 1.2 2.8 2.4 4.6 2.8 1.3.3 2.8.2 4 .7.5.2 1.1.8.8 1.2-.1.2-.3.2-.5.2-.9.3-1.9.3-2.8.3-.7 0-1.3 0-1.9-.2-.5-.2-.8-.5-1.1-.8-1.4-1.3-2.8-2.5-4.1-3.8-1.4-1.2-2.7-2.5-4-3.8-.6-.6-1.1-1.3-.9-1.9z"/><path fill="#49401B" d="M126.5 138.6c-.2 0-.3 0-.5-.1-.2-.2-.2-.4-.2-.6.2-1.6-.1-3.2-.3-4.8-.1-.7-.2-1.5-.3-2.1-.6-4-1.2-8-2.7-11.9 1.3.2 2.6.1 3.8-.5-1.2 3.2-1.1 6.8-1.1 10.3 0 1.4.1 2.8.5 4.1.5 1.1 1.1 2.1 1.9 3 .7.8 1.4 1.8 2.1 2.6h-3.2z"/><path fill="#5A4F22" d="M125.2 146.6c0-1.2-.2-2.5.2-3.7.6-1.8 2.5-3.2 4.4-3.1v.7c-1.4.3-2.6 1.4-3 2.8-.1.3-.2.6-.5.8-.7 4.4-.6 8.8.2 13.1-.8-.2-1.6-.3-2.3-.7-.7-.4-1.2-1.1-1.1-2 .1-.5.3-.9.5-1.3 1-2.1 1.5-4.4 1.6-6.6z"/><path fill="#49401B" d="M109.2 175.7c0-.5.4-.9.7-1.3 1-1.1 2-2.4 3-3.5.6-.7 1.2-1.5 1.7-2.2.5-.8 1-1.8 1.5-2.7.7-1.1 1.5-2.1 2.3-3.1 1.3-1.6 2.6-3.2 4-4.8.4-.5.8-.9 1.4-1s1.1.4 1.5.8c.6.5 1.1 1.1 1.8 1.7-1.9-.4-3.9.2-5.5 1.2-1.6 1.1-2.9 2.6-4.1 4.1-1.5 1.9-2.8 3.9-3.3 6.2-.5 2.4-.2 5 1.3 6.8-1.5.2-3.2 0-4.6-.6-.9-.1-1.7-.7-1.7-1.6z"/><path fill="#5A4F22" d="M91.9 196.2c-1.4-1.8-2.4-3.9-3.1-6-.1-.3-.2-.6-.2-.9.1-.8.9-1.3 1.6-1.7 4.7-2.6 9.3-5.6 13.7-8.8 1.1-.8 2.2-1.7 3.6-1.9s2.9.5 3.2 1.8c-2.2 0-4.3.8-6.3 1.6-3.4 1.5-6.9 3.4-8.6 6.7-1.8 3.2-1.6 7-1.5 10.7-.9.1-1.8-.7-2.4-1.5z"/><path fill="#685D28" d="M55.3 206.9c-.2-.2-.3-.5-.3-.7 0-.4.3-.6.6-.8 9.6-8 21.6-12.2 33.4-16.3-.8 2 .3 4.2 1.4 6 .3.5.6 1.1.9 1.5-4.1-1.8-8.7-2.8-13.2-2-4.4.8-8.6 3.3-11 7.1-2.3 3.9-2.4 9.1.1 12.8-4.7-.9-9-3.7-11.9-7.6z"/><path fill="#7B6D33" d="M53.3 206.7c1.1 2.4 3.3 4.4 5.8 5.3-5.5 1.1-11.6 2.4-15.1 6.8-2.8 3.3-3.7 8-2.9 12.2.8 4.3 3.1 8.2 6.1 11.3-4.5-1.5-9-2.9-13.5-4.4-.2-5.9 3.1-11.3 6.6-16.1 2.3-3.2 4.7-6.3 7-9.5 1.7-2.1 3.5-4.4 6-5.6z"/><path fill="#685D28" d="M46.4 273.4c.4.2.8.5 1 .9.2.8-1 1.3-1.8 1.1-2.1-.3-3.7-2.1-4.8-4-6.4-9.5-9.3-21.3-8-32.7 4.7.2 9.3 1.6 13.3 3.9-3.8.6-7 3.4-8.7 6.9s-1.9 7.5-1.4 11.3c.2 1.4.5 2.7 1 4 1.6 4.2 5.5 6.7 9.4 8.6z"/><path fill="#49401B" d="M54.7 287c-1.5-1.5-3.1-2.9-4.7-4.4-1.1-1-2.1-2-3-3.2-.5-.8-1-1.7-1.3-2.5 3 .5 6 .6 9 .4.1.2-.2.5-.4.4-.6 3-.5 6.3.4 9.3zM95.2 298.9c2-.6 3.8-1.6 5.8-2.1 2.4-.7 5-.6 7.6-.6 2.1 0 4.4 0 6.5.1.8 0 1.9.2 2.2.9.2.5 0 1.1-.4 1.5-1 1.5-2.8 2.1-4.6 2.5-8.3 2.1-17.3 2.1-25.6.2-1-.2-2.1-.7-2.4-1.7 3.6.1 7.4.3 10.9-.8z"/><path fill="#461020" d="M61 120.5c.2-1.5.9-2.9 1.7-4.3 2.8-5.2 6.1-10.2 10-14.7 2.6-3.1 5.4-6 7.3-9.5-1.3-.3-2.6.2-3.6 1.1s-1.7 2-2.5 3c-2.9 3.9-6.8 7-9.6 11-1.8 2.6-3 5.6-4.1 8.6-.3.8-.7 1.8-.6 2.7 0 .9.5 1.9 1.4 2.1z"/><path fill="#5C1329" d="M61.8 117.5c-.3.5-.6 1-.7 1.5-.4 0-.7.4-.7.8h-.8c-.2-1.1-.8-2-.8-3.1s.7-2.1 1.5-3c.5-.7 1.1-1.4 1.6-2.1 1-1.9 2.2-3.7 3.6-5.3.3-.3.6-.8.4-1.1.2-.1.5-.2.7-.2.2 1.4.4 2.8-.1 4.1-.2.5-.4.8-.5 1.3-.5 1-1 1.9-1.5 2.9-1 1.5-1.9 2.9-2.7 4.2z"/><path fill="#400F20" d="M67.4 103.4c-.8 1.1-1.5 2.1-2.2 3.1-1.7 2.4-3.4 4.7-5.4 6.9-1.4-5.7-.1-11.6 2.1-17.1 4-.2 7.9-.4 11.9-.6-.8.8-1.5 1.8-2.3 2.7-.2.2-.3.4-.5.6-1.3 1.5-2.4 2.9-3.6 4.4zM88.5 89.3c-1.2-.2-2.4-.2-3.6.2-.8.3-1.4.8-2 1.5-5 4.6-9.6 9.8-13.7 15.3-.6.8-1.1 1.6-1.5 2.6-.2.6-.2 1.3-.2 2-.1 2.7-.2 5.4-.2 8 1.9-3.4 4-6.7 6.2-9.9 5.4-7.9 12-15.5 21-19-2-.3-4-.5-6-.7z"/><path fill="#F9F6EF" d="M61.5 97.5c-1.3-.6-2.5-1.2-3.8-1.8-2.4 5.4-3.5 11.4-3.1 17.3.1.8.2 1.7.5 2.4.7 1.5 2.4 2.4 3.9 3.2-.1-7.1.7-14.2 2.5-21.1z"/><path fill="none" d="M46.3 66.9c2.7 1.8 6 2 9.1 2.2 1.8.2 3.8.2 5-1.1 1.1-1.1 1.5-2.8 2.8-3.2.2 2.4 3 3.4 5.4 3.4 3.6-.2 7-1.8 10.2-3.3 7.7-3.7 15.2-7.3 22.9-11"/><path fill="#A78B65" d="M66.1 264.6c.2 1.8.7 3.5 1.3 5.3 2.1 6.5 4.4 13.3 9.8 17.5 3.1 2.5 7.1 3.8 10.9 4.8 7 1.9 14.2 3.1 21.5 3.7 3.7.2 7.7.3 11.1-1.3-9.7-3.1-19.7-6.4-27.8-12.5-8.2-6.2-14.4-15.8-13.9-26 .5-9.4 6.3-17.5 11.9-25-11.2 5.8-21 15.5-24.3 27.8-.3 1.9-.6 3.8-.5 5.7z"/><path fill="#C4A574" d="M35.4 228.3c.5-1.4 1.2-2.7 2.1-3.7-3 .5-5.9 1.7-8.3 3.4-2.4 2.1-3.9 5.1-4.1 8.3 2.8.3 5.6.6 8.3.9 0-2.9.5-5.7 1.4-8.5.2-.3.4-.6.6-.4zM14.1 241.1c-1.1 1.7-1.5 4.2-.3 5.5.4.4.8.6 1.3.8 1.9 1 3.9 2 6 2.3 2.1.4 4.4 0 6.3-1.5 1.3-1.1 2.2-2.5 3.1-4 .6-1 1.2-2.1 1.5-3.2 0-.2.1-.3 0-.5s-.2-.2-.3-.2c-1.4-.5-2.7-1.1-4.1-1.7-2.7-1.1-5.5-2.2-8.4-1.5-1.9.6-3.8 2.1-5.1 4z"/><path fill="#887052" d="M47.5 280.8c-.7-1.1-1.2-2.3-2.2-3.1-.9-.8-2.1-1.1-3.2-1.3-9-2.1-18.4-2.4-26.7-6.1-1.8-.8-3.5-1.8-5-3.1-1.4-1.3-2.4-2.8-3.1-4.6l-.2 1.1c1.1 9.5 4.9 19.7 13.5 23.7 2.4 1.1 5.1 1.7 7.7 2.2 10.8 2.1 21.9 4.4 32.7 2.7-2.4-5.6-10.2-6.6-13.5-11.5z"/><path fill="none" d="M168 247c7.5-1.5 15 1.8 22 4.9 3.7 1.7 7.3 3.4 10.9 5 1.1.5 2.2 1.1 3 2 1.7 2.1 1.1 5.9 3.4 7.3"/><path fill="#887052" d="M69.1 274.9c2.1 2.8 5.6 5 9 4.3s5.9-5.3 3.5-7.9c6.3 3.6 12.9 6.8 20 8.4s14.8 1.5 21.4-1.4c2.4-1.1 4.7-2.4 7.2-3.4 5.7-2 11.9-1.1 17.6.8 5.7 1.9 11 4.7 16.7 6.6 6.3 2.1 12.9 3.3 19.4 4.1 4.7.6 9.6 1.1 14.2-.3 4.5-1.5 8.6-5.5 8.6-10.3.2 8.7-5.7 16.9-13.5 21-7.7 4.1-16.9 4.7-25.6 3.7s-17.1-3.6-25.6-5.6c-4.8-1.1-9.7-2.1-14.6-1.8-4.4.2-8.6 1.2-12.9 1.8-10.9 1.5-22.2 0-32.3-4.2-3.7-1.5-7.5-3.7-9.3-7.3-1.3-2.9-1.4-6.5-3.8-8.5z"/><path fill="#C4A574" d="M189.1 249.3c-2.3-2.3-5.8-2.6-9-2.8-15.3-.9-30.8-1.8-45.8 1.5-3.1.7-6.1 1.5-9.2 2.1-14.5 2.9-29.8.9-43.1-5.4.1 1.7 0 3.4-.2 5 7.6 1.3 15.2 2.6 22.9 2.7 13.1.2 26.2-3.1 39.2-1.2 7 1 13.8 3.4 20.8 5.1s14.4 2.5 21.1.4c2.2-.7 4.7-2.2 4.6-4.6.1-1.1-.6-2.1-1.3-2.8z"/><path fill="#C4A574" d="M83.1 245.7c-.5-.2-1.1-.4-1.3-.8-.9-1.5 2.1-2.4 2.8-4.1 9.7 2.4 19.8 3.1 29.8 2.4 16.8-1.2 33.2-7 50-7.9-11.9 6.3-25.2 9.3-38.4 12.3-7.2 1.6-14.5 3.2-21.9 2.9-7.1-.3-14.2-2.5-21-4.8z"/><path fill="#CEC6B3" d="M140.1 186.1c-9.5 7-15.9 18.1-17.4 29.8-.5 3.5-.4 7.3 1.9 10.1-9.2 1.4-18.4 2-27.7 1.9-.5 0-1.1 0-1.5-.4s-.5-1.1 0-1.4c1.8-1.7 3.7-3.4 5.6-5l18.9-16.8c3.6-3.2 7.1-6.3 10.7-9.6M162.2 152.7c1.1-2.4 2.6-5 5.2-5.7 3.4 1.4 5.4 5.4 4.3 8.9-.8 2.9-3.4 5-4.4 8-4.9-.2-9.8 1.4-13.6 4.4-.5-1.1 1.1-1.9 2.1-2.8.5-.5.8-1.1 1.1-1.8 1.8-3.6 3.6-7.3 5.3-11z"/><path fill="#CEC6B3" d="M159.8 167.5c.5 2.1.9 4.4 0 6.3-.3.8-.8 1.4-1.4 2-1.8 2-4 3.7-6.3 4.9-2 1-4.1 1.7-6.1 2.4s-4 1.3-6 2c3.2-2.7 5.7-6.3 7-10.3.3.2.6-.2.8-.6 1.5-4.8 7-7.9 12-6.7z"/><path fill="#F2EBD8" d="M194.7 76.8c-.1-5.7-2.1-11-4.2-16.3-1.3-3.4-2.6-6.7-4.7-9.6-2.1-2.8-5.2-5.2-8.7-5.7 6.5 5.7 9.4 14.5 10.4 23 2.6 22-5.4 43.8-14.2 64.2 5.9-8 11.1-16.7 15.5-25.6 1-2.1 2-4.1 2.6-6.3 1.1-3.6 1.3-7.4 1.8-11.2.5-4.1 1.5-8.3 1.5-12.5z"/><path fill="#CCBA9B" d="M178.9 119.6c-1.5 2.4-2.7 4.7-4.2 7-6.3 9.3-16.3 15.1-26 20.7-1.8 6.3-3.5 12.6-6 18.7-.8 1.9-1.6 3.8-1.8 5.9 4-.3 8.3-.8 11.3-3.4 1.4-1.2 2.3-2.8 3.2-4.3 6.8-11.4 13.1-23.1 18.7-35.1"/><path fill="#CCBA9B" d="M139.7 182.8c3.5-3.9 7.1-7.9 9.1-12.8-3.3.2-6.6.9-9.7 2.1-.7 3.1-2.9 5.5-5 7.8-5 5.4-10.1 10.7-15.7 15.5-8.6 7.3-18.4 12.9-27.8 19.2-2 1.4-4.3 3.3-4 5.7 9.6-7.2 20.2-13.2 31.4-17.7 1.7-.7 3.4-1.3 4.9-2.3 2.3-1.5 4.2-3.5 6-5.5 3.6-4.1 7.2-8 10.8-12z"/><path fill="#5C4935" d="M127.9 289.9c4.1-.8 8.2-.8 12.2-.1 6.2 1.1 11.9 3.8 18.1 5.4 2.6.7 5.3 1.1 8 1.5 3.5.5 7 .8 10.6.8 9.5-.1 19-3.2 26.6-8.7-4.1 5.5-10 9.7-16.6 11.9-3.6 1.1-7.4 1.8-11.2 1.6-4.1-.2-8.3-1.2-12.2-2.2-2.9-.8-5.9-1.5-8.8-2.2-6-1.5-12.2-3.1-18.4-3.3-7.9-.2-16.4 1.5-23.2-2.6 4.9.9 9.9-1.1 14.9-2.1zM115.6 294.5c0-.6-.6-1-1.1-1.3-.9-.5-1.8-1.1-2.8-1.5-.8 1-2.1 1.3-3.4 1.5l-6 1.2c.8-.1 1.7.3 2.5.7 2.8 1.1 5.8.9 8.7.7 1-.2 2.1-.5 2.1-1.3zM25 288c1.8 1.6 4.1 2.8 6.5 3.3 2.1.5 4.3.6 6.4.7 7.1.2 14.2.5 21.4.8-.5-1.6-1.7-3-3.2-3.7-1-.5-2.1-.6-3.1-.7-10.4-1.1-21.3 1.5-31.1-2.4 1.3.2 2.2 1.1 3.1 2z"/><path fill="#A5895B" d="M50.2 85.8c-.7.2-1.5.2-2.2.2h-3.6c-1.2 0-2.7-.1-3.5-1-.2-.2-.4-.5-.5-.8-.7-1.5-.5-3.4.5-4.7.8-1.1 2.1-1.9 3.3-2.5 2.4-1.1 5-1.9 7.7-2.2-1.4.7-2.8 1.5-3.7 2.7-.9 1.3-1.1 3.2.1 4.3.5.5 1.3.7 2.1.8 2.1.4 4.2.4 6.3 0-1.1.7-2.3 1.4-3.4 2.1-1.2.4-2.1.9-3.1 1.1z"/><path fill="#7D623A" d="M55.4 74.3c.1.1.2.2.2.3.7 1.1.1 2.2 1.8 2.9.9.4 2 .3 2.9.2.5-.1 1-.2 1.5-.5 2.5-1.9.8-10.8.5-13.5 0-.2-.1-.5-.2-.6-.2-.2-.5-.2-.7-.2-5.1.4-9.9 3.1-15.1 3.3.8 1 1.5 1.9 2.3 2.9 1.2 1.6 2.6 3.3 4.6 3.9 1.1.5 1.7.7 2.2 1.3z"/><path fill="#BCB4A2" d="M56 15.1c.7-1.6 3.5-4.4 5.1-5.4-1.5 2-3.8 5.4-2.5 6.8.7.7 1.8.9 2.8 1 2.4.2 5 .2 7.4-.3-2 4.7-2.8 9.8-2.2 14.8.5 4.2 1.9 8.3 3.4 12.3-5.4.2-10.7-.8-15.6-2.8-.2-.1-.5-.2-.7-.5s-.2-.7-.2-1c.2-6.2.3-12.3.5-18.5.1-1.7.1-3.4.9-4.9.2-.4.6-1 1.1-1.5z"/><path fill="#CEC6B3" d="M69.1 16.8c-2.1 1.4-2.8 4.3-3.1 6.8-.5 3.4-.7 6.8.1 10.1.2 1 .6 2 .9 3 .8 2.4 1.7 4.7 2.6 7.2 3.7-.5 7.7.9 11.1-.7.7-.3 1.4-.8 2.1-1 1.8-1.8 4.1-3.4 6.6-4.4-.9-.3-2 .2-2.9-.2-.4-.2-.7-.5-1-.8-1.5-1.5-3-3-4.5-4.4-1.1-1.1-2.4-2.3-3.4-3.7-2.7-3.5-3.8-8.5-3.2-12.9.9-.5 1.5-1 1.6-2-1.7 2.1-4.8 1.7-6.9 3z"/><path fill="#E5D3AE" d="M184 224.5c-.2-1.1-.4-2.1-.8-3.1-.7-2.1-1.9-4.1-3.4-5.6-.9-.8-1.9-1.6-2.9-2.3-.3-.2-.7-.5-1.1-.5-.2.9.1 1.8.5 2.6.2.3.5.8.3 1.1-.1.1-.2.2-.2.3s0 .2.1.3c1.3 3.3 3.9 6.6 7.5 7.2z"/><path fill="#E5D3AE" d="M166.8 231.8c-1.1-1 5.6-5.1 5.7-6.4 0-.9.5-1.8.9-2.5 1.1-1.9 2-4 2.7-6 .8 1.5 1.8 2.9 3 4.1 1.3 1.5 2.9 2.8 4.8 2.9.1 3.1-.5 8.8-.4 11.8-3.5.5-14-1.6-16.7-3.9z"/><path fill="#9A7F5F" d="M115.2 110.2c-6.7-3.3-14.8-1.2-21.7 1.6-6.3 2.7-12.5 5.9-18.2 9.8 11.2-2.4 24-4.1 33.4 2.8 8.6 6.2 11.3 17.5 12.8 28 .2 1.5.7 3.2 2.1 3.4.3-8.3 2.5-16.4 2.4-24.6-.2-8.3-3.4-17.4-10.8-21z"/><path fill="none" d="M51.3 72.5c-.2-.1-.3-.2-.4-.5-.8-1.1-2.1-1.7-3-2.8-.9-1.1-1.3-2.5-1.6-3.9 3.1.2 6.3 0 9.5-.7-.1 2.6-.1 5.3.1 7.9h-4.1c-.2.1-.3.1-.5 0z"/><g><path fill="#1E1B12" d="M209.9 263.5c-1.8-10-10.8-14.5-19.7-17-.5-.2-1-.2-1.5-.4-.2-3.2-1.5-6-3.4-8.3.1-.1.2-1.6.2-2 .9-6.6.6-13.9-3.2-19.7-2.3-3.4-5.2-6.4-8.1-9.4.4 3.7.8 7.7-.3 11.4-1.4 4.2-4 7.4-7.3 10.3-5.2 4.4-11.7 6.4-18.4 7.3-18.8 4.5-40 9.4-57.7-.9 1.6-1.9 3.4-3.7 5.1-5.5 0 .1.1.1.1.2.3-.2.7-.2 1.1-.2 12.5-.1 25.1-1.6 37.3-4 6.1-1.2 12.1-2.9 18.1-4.4 4-1 7.9-1.9 11.5-3.7-11.5-4.8-16.6-18.7-13.1-30.4.8-4 3.1-7 8-7.3 6.3-.5 13.2 0 19.5.8 5.4.7 10.4 2.5 15.5 3.7-.8-6.6-2.3-12.8-6.7-17.4-.2-.3-.4-.7-.4-1 0-.2 0-.4.1-.6.1-.2.4-.3.7-.3 8 .3 16 2.1 23.1 5.6.2-.4.2-.8 0-1.2-5.3-16.7-17.8-30.2-34-36.7 11.7-18.4 23-39.4 19.4-62-3.1-19.2-19.7-38-40.2-33.1-.1-.5-.5-1.7-.5-1.6-1.8-5.4-13.7-7.8-18.9-8.6-4.9-2.3-9.9-4.4-15.1-6-.3-6.7-1.9-14.3-8-16.1-10.3-2.9-22.4-3.2-33-3.1-8.9.2-19 1.9-25.2 8.6-1.9 2-2.6 4.5-3 7.2h-.3c-10.3-.2-20.9 3.5-27.5 10.9-3 3.4-5.1 7.4-6 12.3-1 5.2-.2 10.4 2.1 15-2.1.2-4.2 1-6 3-5 5.2-5 14.9-3 21.3.1.2.2.5.2.7 1.3 3.1 3.3 6 5.6 8.6 3.7 3.3 7.5 6.4 10.8 10.1.9.9 1.1.8 1.1 1.7.1 6 2.3 11.2 6.9 14.5 0-1.1-.1-2.2-.1-3.3 0-1.7 1.6-2.2 2.8-1.7 1.1.3 1.8 1 2.8 1.6 1.4.8 2.9 1.4 4.4 2 .3.2.5.3.5.3.2.2.2.4.2.4v.5c0 .1 0 .1-.2.4-2.7 5.4-3.5 13.5-1.1 19.4-3.7 4.3-8 8-13.4 10.7 1.8 0 3.9.1 5.6-.3 1.5-.6 1.5-.8 2.2-1.1-.1 3.7 1.1 7 3.5 10 .2.2.3.3.5.3-1.4-5 .6-10.1 3.6-14.8.3-.3.6-.5.9-.5h.3c.3 0 .5.1.9.4.7.5 1.4.7 2.1.8 9.6.4 16.2-9.4 22.3-15.9 9 1.6 19.9 4.2 28.5 9 .2 0 .2.1.4.2.1.1.2.1.2.2h-.1c.3.5.3 1.1-.4 1.3-13 2.2-25.3 6.7-33.1 17.1 8.6-2 19.8.1 26.7 5 .4.3.5.8.3 1.1-.2.3-1.6.9-1.9 1-2.4 1.1-4.8 2.1-7.3 3-3.3 1.7-6.4 3.7-9 6.3 4.5-.1 8.9-1.1 13.3.8.5.2.5.9.2 1.3-1.3 1.4-2.7 2.6-4.1 3.7-7.2 6.6-17.1 10.8-26.2 13.5-6.1 1.9-12.9 3.4-19.3 5.4-2.5.9-5 2-7.3 3.2-6 3.2-13.1 7.6-16.1 14.1 2.2-.5 4.5-.5 6.9-.2 5 .6 8.6 4.5 13.4 5.3 1.7 0 1.4 1.1 1.1 1.7-.8 1.1-1.5 2.3-2.2 3.4-11-4.3-22.8 2.8-23.9 14.8-2.8 1.1-5.1 3-7 5.9-5.3 7.9-3.2 20.5-.7 29 2.2 7.4 6.7 13.1 12.9 16.8.8.3 1.7.7 2.5 1.1.2 0 .5.1.7.2 10.3 4.2 20.9 3.9 31.8 3.9.2 0 2.8 0 5.3.5 2.4.5 4.7 1.5 4.7 1.4 5.4 2.8 11.2 4.7 17.1 6.1 8.6 2 18.1 2.9 27.2 1.8 6.5-1.6 12.8-3.4 18.4-7.3.1-.1.2-.1.2-.2v-.1h.1c.3-.2.6-.2 1-.2 1.7 0 3.2.2 4.8.4 17.6 1.2 34.4 9.6 52.5 6.5 7.9-1.3 15.1-5.1 19.9-11.6 5.6-7 6.3-18.2 4.8-26.9zM175 222.6c.8-1.8 1.8-4.8 2.3-7.7 4.7 5.9 7.4 12.4 5 20.4-1.2-.8-2.5-1.5-4-2.1-3.4-1.4-7-1.6-10.9-1.4 3.2-2.4 5.9-5.3 7.6-9.2zm-40.6 20.2c9.3-1.8 18.9-3.1 27.8-6.3 3.6-1.3 9.2-1.5 15.1.2 3.7 1.1 7 4.7 7.6 8.6-9.3-1.6-19.2-1.3-28.6-1.4-12 0-23 2.1-34.7 4.7-12.6 2.8-23.8.6-35.9-3.4-.5-.2-1.1-.4-1.7-.6 1.1-2.4 2.4-4.7 4.1-6.8 13.9 8.5 30.7 7.9 46.3 5zm-56.7 9.1c-2.4 11.6 2.8 22.3 11.3 30 6.7 6.1 15.2 9.6 23.9 12.2-13.9-.2-29.1-1.5-38.5-12.5-5.6-6.6-7.8-16.4-7.7-24.9.1-7.4 2.8-14.5 6.7-20.7 8.3-13 22-22.1 34.2-31 11.9-8.6 23-17.4 31.2-29.4 2.5-.8 5-1.7 7.6-2.5-5.6 7.3-11.6 14.5-17.9 21.2-9.1 9.6-19.2 18.1-29.4 26.7-9.7 8.1-18.6 17.9-21.4 30.9zm62.7-142.3c3.4 7.7 5.9 15.8 6.6 24.2-.1 0-.2.1-.2.1-6 3.1-12.5 4.3-19.1 3.4 0-2.2-.1-4.4-.2-6.5-.2-3.5-1.3-7.3-2.9-10.8 6.2-1.5 11.9-5.1 15.8-10.4zm-18 6.8c-2.5-3.8-6-6.9-10.2-8.3 7-2.8 12.5-7.2 15.1-15.1.5-1.5.8-3.1 1.1-4.7 3.7 5.5 7.3 11.2 10.3 17.2-3.8 6-9.6 9.9-16.3 10.9zm24.7 21.5c0 2.7-.2 5.4-.5 8.3-.5 4-1.5 7.8-2.8 11.6-.2 0-.3 0-.5.1-6.5 1.8-12.9.8-18.6-2.7 1.7-4.4 2.4-9.2 2.7-14 6.8.6 13.5-.3 19.7-3.3zm-5 24.1c-1.5 3.6-3.4 7-5.6 10.3-1.5.5-3.1 1-4.7 1.5-6 1.8-15.5 5.6-21.2 1.8.7-.6 1.4-1.3 2-2 4.3-4.4 8-9.4 10.6-15 5.8 3.4 12.4 4.6 18.9 3.4zm-15.7 17.2c2.1-.5 4.3-1.1 6.4-1.8-5 6.4-11 12.2-17.5 17.1-3.2 2.4-6.6 4.9-10.1 7.4-6.7-.9-12.2-5.7-14.3-11.9 6-3.3 11.7-7.3 16.8-11.8 5.2 4.2 12.6 2.5 18.7 1zm-25.3 25.7c-5.5 4-11.2 8.2-16.3 12.7-.3-.5-.8-.8-1.5-.8-9.9.2-19.4-3.4-26.7-10 2.1-1.5 4.2-2.9 6.4-4.1 7.8-4.4 16.4-6.8 24.5-10.8 2.3 6.2 7.3 11 13.6 13zm89.9-24.3c-8.1-2.1-16.3-3.4-24.7-3.9-6.3-.3-14.7-1.4-17.1 5.9-3.9 11.4-2.6 29.9 10.2 34.1-1.4.5-2.8.8-4 1.1l-8.4 2.4c-5.2 1.4-10.4 2.4-15.7 3.4-10.8 1.9-21.8 2.8-32.7 2.8.4-.4.8-.8 1.2-1.1 8.1-7.2 16.6-13.8 24.4-21.3 10.5-10.2 20-21.3 28.6-33.1 9-2.9 18.1-5.4 27.7-5.6 6.1 2.9 10 8.7 10.5 15.3zm14.3-14.6c-7.8-3.2-15.4-4.7-23.9-4.6h-1.2c-8.1.2-16 2-23.8 4.3 6.6-9.6 12.5-19.7 17.7-30.1 14.1 5.4 25.5 16.5 31.2 30.4zM121.2 23.5c2.5.8 5 1.8 7.4 2.8-2.4-.2-5-.1-7.4.1v-2.9zm15.5 7.6c1.5.3 10.9 2.4 14 4.8-14.2-7.6-33.5-5-47.9.2-7.7 2.8-14.4 7.4-21.1 12-.9.2-1.8.3-2.7.5 4.3-3 8.6-6 13.1-8.6 8.6-5.2 18-8.8 28.2-9.7 5.4-.6 10.9-.2 16.4.8zM86 47.6c3.7-2.5 7.4-4.9 11.4-6.8 8.7-4.3 18.4-6.5 28-7 8-.5 16.4.4 23.6 4.1.3.4.3.4.5 1 .1.4 0 .8 0 1 0 .1-.1.3-.1.4-.3.6-.5 1-1.3 1.4-2.7 1.2-5.5 1.7-8.3 1.4H138c-3 .2-6 .2-9 .2-8.5-.2-16.2-.1-24.3 3.1-1.6.6-3.1 1.2-4.7 1.8-.2.2-8.2 3.7-11.5 4.4-6.7 2.6-13.5 5-20.5 7 3.7-2.1 7.3-4.4 10.8-6.9.1 0 7.3-5.1 7.2-5.1zM56.1 15.8c1.2-4.4 7-6.7 10.9-8 3.8-1.3 7.8-1.7 11.8-1.8 8.8-.5 17.7.4 26.5 1.7 1.9.3 3.9.6 5.8 1 3 .5 3.8 2 4.7 4.8 1.3 4.4 1.7 8.9 1.6 13.4-3.8.5-7.6 1.4-11.2 2.5-1.1.4-.3.1-1.4.5-1.2.5-2.5.9-3.7 1.4-7.3 3.1-14 7.3-20.6 11.8-.3-.2-.6-.2-1.1-.2-8.2.6-16.3.2-24.4-1.4.1-3.9.2-7.8.2-11.8.2-4.7-.3-9.6.9-13.9zm.8 29.6c6.1 1.1 12 1.5 18.1 1.3-2.3 1.6-4.7 3.2-7 4.8 0 0-8.6 5.3-10.9 6.5-2.8 1.5-5.6 2.9-8.6 3.8-.4.2-7.2 1.5-10.6 1.3-6.7-.5-13.7-3.1-14.8-9.8-.1-.2-.2-.3-.2-.5-.4-7.3 3.2-13.8 8.5-18.8 5.1-4.8 12.9-9.7 20.1-9.6-.1 5.7-.2 11.5-.3 17.3-3.1.3-5.9 1.6-8.1 3.7-.2.2-.3.8-.3 1.1 1.7-.8 2.7-1.6 5.2-2.5 2.5-.7 3.1 0 3.3-.1.1.1 3.7 1 5.6 1.5zm4 23.6c.1.4.3.8.5 1.1-3.1.2-6.3.7-9.5 1.5-1.3-1.2-2.7-2.5-3.7-4 4.2-.4 8.4-1.1 12.5-2.1-.1 1.1-.1 2.3.2 3.5zm-11 7.2c3.7-1.1 7.6-2 11.6-2.3v.2c.2 5.5-5.2 8.2-9.7 9.7-2.4.8-5 1.4-7.5 1-4.4-.8-2.7-4.3-.7-6.5 2.1-.8 4.3-1.5 6.3-2.1zm1.6-54.5c.1.2.1.3.1.5-8.1-.2-16 5.1-21.8 10.3-4 3.5-7 8.1-8.4 13.2-.3-15.9 16.1-24.3 30.1-24zM26.4 92c.2 1.1.7 2.6 1.5 4.1v.2c-4.9-4.7-9.9-9.6-12.6-16-2.2-5.3-2.7-15.6 2.6-19.5 1.4-1 3.1-1.1 4.8-.8l.1.1c4.9 6.1 13.5 7.7 20.8 7.6h.3c.9 1.8 2.4 3.4 3.8 4.9-5.6 1.7-10.9 4.2-15.4 7.3-3.6 2.7-6.9 7.5-5.9 12.1zm5.1 7.9c.5.2 1.1.2 1.7.2 0 3.9.1 7.9.4 11.8-2.3-3.3-2.3-7.7-2.1-12zm6.5 6.5c-.3-.2-.5-.4-.8-.5-.1-2.4-.1-4.9-.1-7.4 0-.2 0-.2-.1-.4l.2-.2c2.3-1.8 4.2-2.7 7.2-2.9 1.4-.1 2.8 0 4.1.2-.1 5.4-.5 11.6 1.1 16.8-.1.2-.2.3-.3.4-.3-.3-.7-.5-1.1-.5-4.1-.3-7.3-2.9-10.2-5.5zm17.9 13.8c-2.4 4.1-5 8.2-7.8 11.9-.5-3.7.2-8.7.9-11.9.7-1.5 1.5-2.8 2.4-4.2 1.1 1.7 2.5 3.1 4.5 4.2zm-3.7-24c2.3.5 4.5 1.2 6.8 1.6-2.8 5.9-2 12.2-2.2 18.5-5.8-4-4.8-13.3-4.6-20.1zm-7.5 45c-1.3 2.4-2.1 4.8-2.4 7.4-.5-1.7-.4-6.1-.5-6.3 1.6-1.5 3.1-2.9 4.5-4.5 0 .1.1.1.1.2 2.6-3.4 5-6.8 7.1-10.5 0-.1 4.1-6 4.4-6.4.1 0 .2.1.2.1.7.2 1.3 0 1.8-.5-1.9 3.7-4.9 7.3-8 10.8-2.3 3.3-4.6 6.6-7.2 9.7zm8.2-4.6c-.9.3-1.7.2-2.3 0 .5-.7 1.1-1.4 1.8-2.1 4.1-4.7 7.8-9 10.4-14.8 5-11.2 12.3-21 22.2-28.4 2.1-.6 4.2-1 6.3-1-11.8 4.2-19.1 17.4-24.9 28.1-3.1 5.9-6.5 16.1-13.5 18.2zm7.7-20.4C65.5 108 70.6 100 78 94c.2-.1.3-.2.5-.2-7.7 7.1-13.5 15.7-18 25.5v-.1c.1-.9.1-2 .1-3zm2.2-17.3c.1-.2.2-.4.2-.6 3.1.1 6.1-.7 9.1-1.8-4.4 4.7-8 10.2-11.5 15.8 0-4.6-.1-9.3 2.2-13.4zM73 120.5c-.3.2-6 6.8-8.1 9 6.5-10.9 12.2-26.7 22.9-33.4 4.2-3.3 9.3-5.2 14.5-5.7 0 0-1.7-1.3-1.8-1.3-8.4-5.4-18.5-1.5-27.6 3-5.6 2.7-10.3 2.7-16.3 1.3-4.5-1.1-8.9-2.2-13.5-1.8-3.7.3-6 1.8-9 4-1.2.9-2.1.5-2.7-.5-.7-1.2-1-2.2-1.2-2.8-1.4-3.8 2-7.6 4.8-9.6.8-.5 1.6-1.1 2.4-1.5-.2 1.1-.2 2.4.4 3.6 1.8 3.7 6 4.4 9.8 4.1 7.7-.7 17.7-5.7 17.6-14.5 0-.2 0-.2-.1-.4.2 0 2.2-.5 2.4-.5 3.3.2 6.4-.3 9.6-1 .2.3.5.5.9.7 5.6 2.1 10.8 5.4 16.8 6 3.7.4 6.5-1.2 8.4-3.7.3-.6.8-1.2 1.2-1.8.8-1.5 1.5-3.2 1.9-4.9.4-1.8.1-2-1-2.7-1.1-.4-1.6-.5-2.3-.5-10 .1-19.5 1.8-29.3 3.7-2.4.5-6.7 1.2-8.9-.6-1.1-.8-.8-2.4-.2-4.1l6.6-1.8c8.9-2.5 17.5-5.8 26.1-9.3 0 0 8.6-4.2 13.2-5 1.8-.5 3.7-.9 5.6-1.1 5.1-.6 10.4-.2 15.5-.1h-.1 4.2c1.8-.1 5.9-.8 6-.8 3.3-.6 11.6-3.5 12.1-3.7 9.4-3.2 19-.4 26.2 6.1 7.3 6.7 10.8 16.6 11.6 26.2 1.7 20.5-9.2 39.2-19.8 55.8-.2.4-.3.7-.4 1-1.9 3.8-3.8 7.7-5.9 11.4-4.6 8.4-9.8 16.5-15.3 24.3-2.8.9-5.5 1.8-8.3 2.8.5-.8.9-1.7 1.4-2.5 6.7-12.9 8.8-27.3 6.3-41.5-2.5-14.5-10.2-27.7-18.3-39.8-.9-1.1-2.2-2.4-2.8-3.9-.1-.1-.5-1.1-.5-1.6-.1-.3-.5-2.1-.2-1-.8-3.5-2.5-6.8-6-8.4-.2-.1 3.1 4.9 3.5 8.7.1.8.2.9 0 3.1-.1 1.4-.1 1.4-.7 4-.8 3.3-1.8 6.4-3.1 8.7-4.2 8.3-15.8 10.3-24 12.2-9 2.2-17.3 5.4-24.5 12.1zM83.3 71c6.3-1.1 12.7-1.8 19.1-1.8-1.7 4.9-4.9 6.7-10.4 5.3-3.1-.8-5.9-2.2-8.7-3.5zm-6.2 51c7.6-6.4 16.8-8.5 26.2-11 .1 0 2.9-.7 2.9-.6 2.2-.2 2.1 0 3.2.3 2.9.7 5 1.9 6.8 4 2 1.8 3.7 4 4.9 6.7 1.9 4.2 3.1 9.2 3.2 14.4 0 5.7-1 11.6-2.7 16.9-1.2-6.5-4.7-11.7-9.3-15.9-.2-.2-.5-.3-.7-.5-.7-.7-2.3-2-2.4-2-9.1-6.6-21.3-10.2-32.1-12.3zm-1.8 28.3c9.3-7.8 20.6-11.8 32.7-12.2 6.6 5.2 10.8 12.4 10.1 22.3-.2.3-.3.5-.5.8-2.7 4.4-5.9 8.3-9.5 11.8-.2-.2-.3-.5-.4-.7-2.9-5.4-2.4-12-8.2-15.6-.8-.5 0 0-.6-.4-7-4.6-15.4-5.7-23.6-6zm-43.5 59.3c-2.8-1.1-5.5-1.2-8.3-1.1 6-6.3 15-9.3 23.3-11.7 9.7-2.8 19.4-5 28.5-9.4 5.6-2.6 10.9-5.9 15.5-10 2-1.8 5.7-4.9 4.8-8-.6-2.4-4.1-2.3-6-2.1-1.1.1-2.3.2-3.4.3 4.4-2 9.3-3.2 13.4-5.9 3.1 3.7 3.1 9.8 5.7 13.9-10.6 9.1-24 15.1-36.9 20.3-10.4 4.1-19.7 10.8-26.5 19.5-.3-.5-.8-.8-1.5-.9-3.4-.4-5.5-3.7-8.6-4.9zm21.7-.4c7.7 7.1 17.5 11.2 28 11.5-5.3 5-9.9 10.4-13.2 16.5 0 .1 0 .1-.1.2s-.2.2-.2.3c-.2.4-.5.8-.6 1.2h-.2c-2.4 3-6.3 3.9-10.3 3.6-1.9 0-3.8-.4-5.7-.8-5.4-1.1-10.6-3.1-15.8-5 2.8-11 9.5-20.4 18.1-27.5zm9.6 51c.2 2.8.6 5.5 1.2 8.2-.2.1-.4.2-.6.4-4.8 4.9-11.5 6.8-18.1 5.1-.5-.2-1.1-.1-1.4.2-5.4-7.3-9-16-9.6-25.5-.2-2.8-.1-5.7.3-8.3 8.6 3.4 21.4 8.9 30.2 4.1-1.6 4.9-2.4 10.1-2 15.8zm-27.3-35.1c-1.1 2.1-2 4.3-2.8 6.6-.5 1.4-.8 2.8-1.1 4.2-.1 0-.2-.1-.2-.1-4.6-.7-9.5-1.1-13.8-.4 1.4-8.4 9.8-13.3 17.9-10.3zm-24.1 50.2C7.8 268.1 6.6 258 8 249.9c2-11.6 13.2-11.9 22.6-10.5h.6c-2.1 14.6 3.2 29.4 12.9 40.6 3.7 4.4 8.1 8 12.8 11.2-16.5-1.9-36.3.8-45.2-15.9zm59.2 19c-1.5-.6-3.1-1.3-4.6-2.1-7.1-3.4-13.6-8.3-18.8-14.2 6.6.8 13-1.2 18-5.7 2.4 6.9 6.6 13.1 12.6 17.4-1.5 1.8-3.7 3.1-6 3.7-.6.2-1 .5-1.2.9zm5 1.8c2.1-1 4-2.5 5.4-4.4h.1c10.3 5.6 22.7 6 34.3 6-12.5 3.9-27.2 2.6-39.8-1.6zm130.7-22.7c-.2 5.1-1.5 10.1-4.1 14.5-4.6 7.3-13.7 10.3-21.9 11.2-19.6 2-37.8-9.1-57.5-7-.5.1-.8.2-1.1.5-9.8-2.5-19.6-5.4-27.9-11.5-9-6.5-14.5-17-12.6-28.2.3-1.6.7-3.1 1.1-4.7 9.3 3.1 18.7 6.1 28.5 5.8 10.8-.3 21-4.5 31.7-5.7 10.6-1.1 21.4-.7 32-.2 3.1.2 6.7.4 10.3 1 .1.1 2.2.5 2.9.6 0 0 .1 0 .1-.1 6.7 1.5 13.1 4.2 16.4 9.8 2.5 4.2 2.3 9.5 2.1 14z"/><path fill="#010202" d="M107.2 8.6c-7.5-.5-14.8.6-22.2 2.1-4.1.8-8 2-11.9 3.4-1.7.6-3.4 1.1-5 1.7 0 0-2.4.8-3.6.9-1.2.2-2.5.1-3.7-.4-.9-.4-2-3-1.9-3.2-.5.6-.3.3-.5.6-1.2 2.3 0 4.1 2.2 4.9 4 1.4 9.4-1 13.1-2.3 6.9-2.4 14.1-3.9 21.3-4.5 6.4-1.6 9.1-2 13.2-2.4 0-.5-.5-.7-1-.8z"/><path fill="#010202" d="M86 23.2c-.5-.6-.4-.6-.8-1.2-.4-1.1-.3-1.5-.1-2.4.2-.6.3-.9.7-1.6 2.2-2.5 4.7-4.4 7.8-4.8 0-.1.1-.2.1-.2-.2-.2-.5-.4-.8-.4-4.4 0-11.1 4.3-10.3 9.3.3 2.4 3.3 3.8 5.2 4.7 4 1.4 6.9 2.1 10.5 2.3.3 0 .9-.4 1.2-.5-4.9-.8-9.6-2.2-13.5-5.2z"/></g></svg>